<svg width="25" height="25" viewBox="0 0 25 25" fill="none" xmlns="http://www.w3.org/2000/svg">
<path d="M5.96779 4.58058C9.3682 1.18017 14.8814 1.18017 18.2818 4.58058C21.6822 7.98099 21.6822 13.4942 18.2818 16.8946L17.0948 18.0685C16.2199 18.9271 15.0848 20.0311 13.6889 21.3806C12.8167 22.224 11.4329 22.2239 10.5608 21.3804L7.06966 17.9845C6.6309 17.5537 6.26363 17.1904 5.96779 16.8946C2.56738 13.4942 2.56738 7.98099 5.96779 4.58058ZM17.2211 5.64124C14.4065 2.82661 9.84307 2.82661 7.02845 5.64124C4.21382 8.45586 4.21382 13.0193 7.02845 15.8339L8.51552 17.3014C9.33443 18.1028 10.3639 19.1032 11.6036 20.3022C11.8943 20.5833 12.3555 20.5834 12.6463 20.3023L16.0412 17.0008C16.5101 16.5405 16.9035 16.1515 17.2211 15.8339C20.0357 13.0193 20.0357 8.45586 17.2211 5.64124ZM12.1248 8.01123C13.7825 8.01123 15.1263 9.35507 15.1263 11.0128C15.1263 12.6705 13.7825 14.0143 12.1248 14.0143C10.4671 14.0143 9.12323 12.6705 9.12323 11.0128C9.12323 9.35507 10.4671 8.01123 12.1248 8.01123ZM12.1248 9.51123C11.2955 9.51123 10.6232 10.1835 10.6232 11.0128C10.6232 11.8421 11.2955 12.5143 12.1248 12.5143C12.9541 12.5143 13.6263 11.8421 13.6263 11.0128C13.6263 10.1835 12.9541 9.51123 12.1248 9.51123Z" fill="white"/>
</svg>
